<?xml version="1.0" encoding="UTF-8"?>
<svg width="512" height="512" version="1.1" viewBox="0 0 512 512" xml:space="preserve" xmlns="http://www.w3.org/2000/svg"><rect width="512" height="512" fill="#a4efaa"/><path d="m192.42 121.39c0-16.246 13.18-29.427 29.426-29.427s29.427 13.18 29.427 29.427c0 16.246-13.18 29.426-29.427 29.426s-29.426-13.18-29.426-29.426zm285.64 58.796c0 34.097-29.512 57.736-50.4 57.736h-43.352c-6.4469 0-8.5386 1.0315-12.292 4.3552l-175.5 175.01c-14.155 13.324-31.289 18.739-45.443 18.739h-59.942c-36.876 0-57.191-32.607-57.191-58.423s20.315-56.246 54.183-56.246h33.667c10.2 0 10.831-0.22922 16.017-5.4154l55.042-55.042h-0.11461v-75.644c0-39.083 58.251-39.512 58.251 0v18.538l63.323-63.266c10.859-10.859 29.054-16.647 43.209-16.647h68.423c22.378 0.086 52.12 22.578 52.12 56.303zm-29.742-0.4298c0-9.9998-10.086-26.733-25.071-26.733h-61.575c-12.579 0-19.885 0.91689-27.278 8.3093l-179.85 179.85c-6.6475 6.6475-14.326 9.9998-25.988 9.9998h-39.999c-13.037 0-25.616 9.3408-25.616 25.96 0 16.647 13.209 29.312 28.194 29.312h58.337c11.662 0 20.745-2.8366 27.879-9.9998l176.87-176.87c9.0257-9.0256 15.96-11.232 31.633-11.232h37.02c18.281 0.0287 25.444-18.596 25.444-28.596z" fill="#000"/></svg>
