<?xml version="1.0" encoding="UTF-8"?>
<svg width="512" height="512" version="1.1" viewBox="0 0 512 512" xml:space="preserve" xmlns="http://www.w3.org/2000/svg">
<path d="m326.51 0-7.6699 7.6699-47.734 47.727c-4.234 4.242-4.234 11.114 0 15.348 4.241 4.234 11.114 4.234 15.348 0l29.211-29.211v65.672c0 5.992 4.8547 10.85 10.846 10.85 5.992 0 10.846-4.8566 10.846-10.85v-65.672l29.219 29.211c2.114 2.122 4.8879 3.1777 7.6699 3.1777 2.774 0 5.5589-1.0557 7.6719-3.1777 4.242-4.234 4.242-11.106 0-15.348l-47.736-47.727-7.6699-7.6699zm-135.96 4.4922c-5.992 0-10.848 4.8547-10.848 10.848v65.672l-29.211-29.211c-4.234-4.234-11.105-4.234-15.348 0-4.234 4.234-4.234 11.106 0 15.34l55.404 55.404 55.406-55.406c4.234-4.234 4.234-11.104 0-15.338s-11.106-4.234-15.34 0l-29.219 29.209v-65.67c0-5.992-4.8537-10.848-10.846-10.848zm-74.326 130.29c-21.485 0-38.961 17.475-38.961 38.959v299.3c0 21.485 17.476 38.961 38.961 38.961h279.55c21.492 0 38.959-17.476 38.959-38.961v-299.3c0-21.484-17.467-38.959-38.959-38.959h-279.55zm-0.00195 24.588h279.55c7.927 0 14.371 6.4441 14.371 14.371v299.3h0.00195c0 7.928-6.4441 14.371-14.371 14.371h-49.006c0.064-0.491 0.28516-0.91974 0.28516-1.4277l4.2734-158.92 3.9199 42.686c0.218 4.589 4.1134 8.1313 8.6934 7.9043 4.581-0.217 8.1223-4.1053 7.9043-8.6953v-70.275c0-29.412-35.59-30.855-50.752-30.855-15.154 0-50.744 1.4435-50.744 30.855v70.275c-0.218 4.589 3.3233 8.4773 7.9043 8.6953 4.581 0.226 8.4674-3.3153 8.6934-7.9043l3.9199-42.686 4.2656 158.92c0 0.508 0.22202 0.93674 0.29102 1.4277h-78.832c0.069-0.491 0.28906-0.91974 0.28906-1.4277l4.2734-158.92 3.9121 42.686c0.217 4.589 4.1143 8.1313 8.6953 7.9043 4.581-0.217 8.1203-4.1053 7.9023-8.6953v-70.275c0-29.412-35.588-30.855-50.742-30.855-15.154 0-50.752 1.4435-50.752 30.855v70.275c-0.218 4.589 3.3214 8.4773 7.9024 8.6953 4.581 0.226 8.4754-3.3153 8.6934-7.9043l3.9199-42.686 4.2754 158.92c0 0.508 0.22115 0.93674 0.28515 1.4277h-49.021c-7.92 0-14.371-6.4431-14.371-14.371v-299.3c0-7.927 6.4511-14.371 14.371-14.371zm74.697 60.527c-11.799 0-21.355 9.5557-21.355 21.348 0 11.782 9.5565 21.338 21.355 21.338 11.783 0 21.34-9.5559 21.34-21.338-1e-3 -11.791-9.5578-21.348-21.34-21.348zm130.17 0c-11.783 0-21.35 9.5557-21.35 21.348 0 11.782 9.5666 21.338 21.35 21.338 11.79 0 21.346-9.5559 21.346-21.338 0-11.791-9.5557-21.348-21.346-21.348zm-130.17 168.38 4.2969 97.705c0 0.508 0.22211 0.93674 0.28711 1.4277h-9.1777c0.065-0.491 0.28516-0.91974 0.28516-1.4277l4.3086-97.705zm130.17 0 4.2988 97.705c0 0.508 0.22301 0.93674 0.29101 1.4277h-9.1738c0.064-0.491 0.28711-0.91974 0.28711-1.4277l4.2969-97.705z"/>
</svg>
