<?xml version="1.0" encoding="UTF-8"?>
<svg width="512" height="512" version="1.1" viewBox="0 0 512 512" xml:space="preserve" xmlns="http://www.w3.org/2000/svg">
<path d="m184.99 95.616c0-18.144 14.72-32.864 32.864-32.864s32.864 14.72 32.864 32.864c0 18.144-14.72 32.864-32.864 32.864s-32.864-14.72-32.864-32.864zm319.01 65.664c0 38.08-32.96 64.48-56.288 64.48h-48.416c-7.2 0-9.536 1.152-13.728 4.864l-196 195.46c-15.808 14.88-34.944 20.928-50.752 20.928h-66.944c-41.184 0-63.872-36.416-63.872-65.248s22.688-62.816 60.512-62.816h37.6c11.392 0 12.096-0.256 17.888-6.048l61.472-61.472h-0.128v-84.48c0-43.648 65.056-44.128 65.056 0v20.704l70.72-70.656c12.128-12.128 32.448-18.592 48.256-18.592h76.416c24.992 0.096 58.208 25.216 58.208 62.88zm-33.216-0.48c0-11.168-11.264-29.856-28-29.856h-68.768c-14.048 0-22.208 1.024-30.464 9.28l-200.86 200.86c-7.424 7.424-16 11.168-29.024 11.168h-44.672c-14.56 0-28.608 10.432-28.608 28.992 0 18.592 14.752 32.736 31.488 32.736h65.152c13.024 0 23.168-3.168 31.136-11.168l197.54-197.54c10.08-10.08 17.824-12.544 35.328-12.544h41.344c20.416 0.032 28.416-20.768 28.416-31.936z"/>
</svg>
