<?xml version="1.0" encoding="UTF-8" standalone="no"?>
<!-- Created with Inkscape (http://www.inkscape.org/) -->

<svg
   width="1280"
   height="640"
   viewBox="0 0 1280 640"
   version="1.1"
   id="svg1"
   xml:space="preserve"
   inkscape:version="1.4.3 (0d15f750, 2025-12-25)"
   sodipodi:docname="open-graph.svg"
   xmlns:inkscape="http://www.inkscape.org/namespaces/inkscape"
   xmlns:sodipodi="http://sodipodi.sourceforge.net/DTD/sodipodi-0.dtd"
   xmlns:xlink="http://www.w3.org/1999/xlink"
   xmlns="http://www.w3.org/2000/svg"
   xmlns:svg="http://www.w3.org/2000/svg"><sodipodi:namedview
     id="namedview1"
     pagecolor="#ffffff"
     bordercolor="#000000"
     borderopacity="0.25"
     inkscape:showpageshadow="2"
     inkscape:pageopacity="0.0"
     inkscape:pagecheckerboard="0"
     inkscape:deskcolor="#d1d1d1"
     inkscape:document-units="mm"
     showguides="true"
     showgrid="false"
     inkscape:zoom="0.7071068"
     inkscape:cx="637.10319"
     inkscape:cy="256.67975"
     inkscape:window-width="2512"
     inkscape:window-height="1260"
     inkscape:window-x="0"
     inkscape:window-y="25"
     inkscape:window-maximized="0"
     inkscape:current-layer="layer1"><sodipodi:guide
       position="80,560"
       orientation="1,0"
       id="guide1"
       inkscape:locked="false" /><inkscape:grid
       id="grid1"
       units="px"
       originx="0"
       originy="0"
       spacingx="0.99999998"
       spacingy="0.99999998"
       empcolor="#0099e5"
       empopacity="0.30196078"
       color="#0099e5"
       opacity="0.14901961"
       empspacing="5"
       enabled="true"
       visible="false" /><sodipodi:guide
       position="80,560"
       orientation="0,-1"
       id="guide2"
       inkscape:locked="false" /><sodipodi:guide
       position="1200,80"
       orientation="1,0"
       id="guide3"
       inkscape:locked="false" /><sodipodi:guide
       position="1200,80"
       orientation="0,-1"
       id="guide4"
       inkscape:locked="false" /><sodipodi:guide
       position="90,555"
       orientation="1,0"
       id="guide5"
       inkscape:locked="false" /><sodipodi:guide
       position="90,550"
       orientation="0,-1"
       id="guide6"
       inkscape:locked="false" /><sodipodi:guide
       position="870,90"
       orientation="0,-1"
       id="guide9"
       inkscape:locked="false" /></sodipodi:namedview><defs
     id="defs1"><clipPath
       clipPathUnits="userSpaceOnUse"
       id="clipPath12"><rect
         style="fill:#ff5555"
         id="rect12"
         width="642"
         height="385"
         x="111"
         y="111"
         ry="8" /></clipPath></defs><g
     inkscape:label="Layer 1"
     inkscape:groupmode="layer"
     id="layer1"><rect
       width="1280"
       height="640"
       fill="#ebe2d7"
       id="rect1"
       x="0"
       y="0"
       style="stroke-width:1.76777;fill:#a4efaa;fill-opacity:1" /><rect
       style="fill:#323232;stroke-width:0.905194;fill-opacity:1"
       id="rect4"
       width="684"
       height="460"
       x="90"
       y="90"
       ry="17" /><image
       width="642"
       height="385.20001"
       preserveAspectRatio="none"
       style="image-rendering:optimizeQuality"
       xlink:href="full-light.png"
       id="image1"
       x="111"
       y="111"
       clip-path="url(#clipPath12)" /><path
       d="m 984.62975,260.98652 c 0,-6.72303 5.4541,-12.17767 12.1772,-12.17767 6.72305,0 12.17755,5.45424 12.17755,12.17767 0,6.72301 -5.4541,12.17723 -12.17755,12.17723 -6.7235,0 -12.1772,-5.45422 -12.1772,-12.17723 z m 118.20535,24.33131 c 0,14.11022 -12.213,23.89266 -20.8569,23.89266 h -17.9402 c -2.6679,0 -3.5336,0.42686 -5.0869,1.80229 l -72.62635,72.42369 c -5.8577,5.51382 -12.9482,7.75468 -18.8055,7.75468 h -24.80556 c -15.26025,0 -23.66712,-13.49361 -23.66712,-24.17695 0,-10.68334 8.40687,-23.27606 22.42233,-23.27606 h 13.93228 c 4.22102,0 4.48214,-0.0949 6.62825,-2.24103 l 22.77782,-22.77781 h -0.047 v -31.30346 c 0,-16.17357 24.10585,-16.35109 24.10585,0 v 7.67151 l 26.2047,-26.18112 c 4.4936,-4.49373 12.0233,-6.88896 17.881,-6.88896 h 28.3152 c 9.2606,0.0356 21.5687,9.34336 21.5687,23.29965 z m -12.3081,-0.17786 c 0,-4.13818 -4.1739,-11.06281 -10.375,-11.06281 h -25.4814 c -5.2055,0 -8.229,0.37943 -11.2883,3.4386 l -74.42665,74.42661 c -2.7509,2.75091 -5.92849,4.13817 -10.75452,4.13817 H 941.6485 c -5.39505,0 -10.60057,3.86546 -10.60057,10.74293 0,6.88896 5.46623,12.13007 11.66741,12.13007 h 24.14141 c 4.826,0 8.5848,-1.17387 11.537,-4.13818 l 73.19355,-73.1934 c 3.735,-3.73504 6.6046,-4.6481 13.0905,-4.6481 h 15.3198 c 7.5652,0.0125 10.5294,-7.69551 10.5294,-11.83377 z"
       fill="#ffffff"
       id="path1-4"
       style="stroke-width:0.999998;fill:#1a1a1a" /></g></svg>
