<?xml version="1.0" encoding="UTF-8"?>
<svg width="512" height="512" version="1.1" viewBox="0 0 512 512" xml:space="preserve" xmlns="http://www.w3.org/2000/svg"><path d="m289.6 13.92c-18.56-18.56-48.64-18.56-67.2 0l-208.4 208.5c-18.56 18.56-18.56 48.61 0 67.14l208.5 208.5c18.56 18.56 48.61 18.56 67.14 0l208.5-208.5c18.56-18.56 18.56-48.61 0-67.14zm-33.6 114.1c17.12 0 30.53 14.78 28.8 31.84l-11.2 112.2a17.66 17.67 0 0 1-35.2 0l-11.2-112.2a28.96 28.96 0 0 1 28.8-31.84m0.064 192a32 32 0 1 1 0 64 32 32 0 0 1 0-64"/></svg>
